<?xml version="1.0" encoding="UTF-8" standalone="no"?>
<!DOCTYPE svg PUBLIC "-//W3C//DTD SVG 1.1//EN" "http://www.w3.org/Graphics/SVG/1.1/DTD/svg11.dtd">
<svg width="100%" height="100%" viewBox="0 0 1024 1024" version="1.1" xmlns="http://www.w3.org/2000/svg" xmlns:xlink="http://www.w3.org/1999/xlink" xml:space="preserve" xmlns:serif="http://www.serif.com/" style="fill-rule:evenodd;clip-rule:evenodd;stroke-linejoin:round;stroke-miterlimit:2;">
    <rect x="0" y="0" width="1024" height="1024" style="fill:rgb(36,33,34);fill-rule:nonzero;"/>
    <path d="M0,0L166.589,0C154.689,1.87 146.466,2.508 134.49,5.621C93.865,16.483 58.242,41.05 33.652,75.163C18.519,95.82 8.169,119.585 3.352,144.735C1.973,151.917 1.426,161.354 0,167.579L0,0Z" style="fill:rgb(254,254,254);fill-rule:nonzero;"/>
    <path d="M857.887,0L1024,0L1024,165.594C1022.74,160.569 1021.92,150.329 1020.61,143.948C1015.61,119.175 1005.39,95.754 990.618,75.244C966.326,41.471 931.196,17.039 891.08,6.019C878.403,2.638 870.409,2.068 857.887,0Z" style="fill:rgb(254,254,254);fill-rule:nonzero;"/>
    <path d="M0,857.234C0.987,863.497 1.474,869.809 2.483,876.062C9.949,922.292 36.971,963.047 74.653,990.41C94.53,1004.93 117.239,1015.1 141.304,1020.27C148.169,1021.71 158.603,1022.65 164.035,1024L0,1024L0,857.234Z" style="fill:rgb(254,254,254);fill-rule:nonzero;"/>
    <path d="M1024,859.377L1024,1024L859.844,1024C863.335,1023.17 868.259,1022.68 871.868,1022.17C940.078,1012.55 999.443,960.018 1017.81,893.682C1021.01,882.123 1022.17,871.44 1024,859.377Z" style="fill:rgb(254,254,254);fill-rule:nonzero;"/>
    <path d="M696.815,300.654C713.674,298.109 710.924,316.922 710.959,327.528C710.978,333.468 710.956,339.437 710.954,345.372L710.941,431.399L710.892,565.384L710.911,604.701C710.998,623.352 712.797,638.065 701.535,654.296C679.578,686.284 632.52,692.781 601.229,670.924C577.638,654.768 567.784,624.29 582.505,598.747C597.424,572.862 629.144,561.373 657.744,566.934C671.532,569.615 680.157,574.726 691.125,582.8L691.224,467.661C691.267,441.314 691.726,414.023 691.283,387.754C669.205,391.45 644.395,396.733 622.372,401.122L527.976,419.558L487.061,427.452C484.748,427.9 475.637,429.288 474.356,430.484L474.421,594.684L474.467,643.143C474.489,664.076 476.609,680.084 462.842,697.702C451.428,712.024 434.755,721.179 416.544,723.123C397.652,725.275 375.566,720.578 361.055,708.005C316.087,669.041 346.496,610.682 400.508,605.971C420.013,604.24 439.41,610.306 454.454,622.84L454.497,441.696L454.474,386.217C454.472,377.615 454.07,364.858 454.662,356.527C454.813,354.352 455.549,352.258 456.791,350.467C458.493,347.966 460.905,346.46 463.851,345.84C472.31,344.058 480.846,342.466 489.334,340.83L542.632,330.559C593.449,320.707 645.968,309.744 696.815,300.654Z" style="fill:rgb(254,254,254);fill-rule:nonzero;"/>
    <path d="M509.857,155.726C564.595,153.452 624.499,168.5 673.157,192.965C757.729,235.829 821.944,310.369 851.817,400.355C881.666,489.458 874.554,586.807 832.073,670.626C788.982,756.41 713.51,821.507 622.329,851.536C536.832,879.539 443.709,872.394 363.485,831.676C270.993,784.704 210.985,711.619 179.051,613.48L197.115,613.461C209.829,653.855 230.015,691.503 256.624,724.448C300.584,779.12 360.344,818.894 427.747,838.343C442.169,842.503 461.005,846.822 475.961,848.394C539.143,856.6 603.34,845.92 660.462,817.701C742.963,777.417 805.951,705.841 835.42,618.888C863.861,533.765 857.316,440.83 817.227,360.533C776.339,279.263 704.871,217.541 618.515,188.918C535.729,162.406 445.84,169.485 368.224,208.629C286.43,250.199 224.753,322.871 197.034,410.335C191.141,410.185 185.034,410.216 179.122,410.173C195.117,358.671 219.713,312.648 256.39,272.728C309.164,214.17 379.904,174.815 457.487,160.853C476.426,157.56 490.742,156.536 509.857,155.726Z" style="fill:rgb(254,254,254);fill-rule:nonzero;"/>
    <path d="M117.85,503.604C123.273,503.201 131.398,503.405 136.925,503.403L169.664,503.397L272.354,503.387L333.944,503.387C342.96,503.389 352.304,503.172 361.315,503.707C363.016,504.063 365.572,505.601 366.404,507.115C369.528,512.802 366.878,517.379 362.106,520.384C346.295,521.036 326.941,520.558 310.87,520.558L216.658,520.577L153.088,520.587C142.205,520.586 130.554,520.962 119.779,520.305C110.565,519.742 109.769,508.792 117.85,503.604Z" style="fill:rgb(254,254,254);fill-rule:nonzero;"/>
    <path d="M171.562,425.587C182.832,424.833 203.079,425.515 215.032,425.518L303.986,425.534L368.88,425.507C377.21,425.499 385.498,425.475 393.871,425.526C400.703,425.568 404.777,429.546 403.457,436.579C402.774,440.218 400.269,441.552 397.103,442.873C382.892,443.542 363.97,442.98 349.215,442.98L255.523,442.976L202.262,443.014C192.717,443.025 179.445,443.807 170.449,442.183C162.564,440.76 163.354,429.708 171.562,425.587Z" style="fill:rgb(254,254,254);fill-rule:nonzero;"/>
    <path d="M172.992,581.1C183.853,580.616 196.783,580.935 207.774,580.942L269.779,580.975C287.614,580.969 306.647,580.256 324.29,581.539C330.47,581.988 333.525,593.578 323.974,598.16C318.914,598.798 302.604,598.422 296.736,598.423L241.883,598.43L196.127,598.452C189.058,598.463 180.108,598.816 173.066,597.987C168.824,597.488 165.71,591.685 167.219,587.6C168.645,583.737 169.264,583.183 172.992,581.1Z" style="fill:rgb(254,254,254);fill-rule:nonzero;"/>
    <path d="M77.692,496.799C83.196,495.451 88.999,497.17 92.88,501.3C96.761,505.429 98.118,511.328 96.431,516.738C94.745,522.148 90.276,526.231 84.735,527.423C76.336,529.229 68.043,523.956 66.118,515.583C64.192,507.211 69.347,498.844 77.692,496.799Z" style="fill:rgb(254,254,254);fill-rule:nonzero;"/>
    <path d="M132.365,418.778C140.98,417.79 148.753,424.001 149.69,432.622C150.627,441.242 144.37,448.978 135.744,449.865C127.19,450.744 119.532,444.55 118.602,436.001C117.673,427.452 123.822,419.758 132.365,418.778Z" style="fill:rgb(254,254,254);fill-rule:nonzero;"/>
    <path d="M133.479,574.279C142.022,572.914 150.046,578.758 151.367,587.308C152.689,595.858 146.804,603.852 138.247,605.13C129.751,606.398 121.827,600.565 120.516,592.076C119.204,583.587 124.997,575.634 133.479,574.279Z" style="fill:rgb(254,254,254);fill-rule:nonzero;"/>
    <path d="M169.959,458.249L185.708,458.211C184.703,465.423 183.357,481.669 182.089,487.647L181.115,488.102L164.919,488.083C165.28,483.223 166.898,461.866 168.592,458.559L169.959,458.249Z" style="fill:rgb(254,254,254);fill-rule:nonzero;"/>
    <path d="M166.486,535.743L182.281,535.703C182.721,545.443 184.692,555.071 185.47,564.776C185.295,565.031 185.119,565.287 184.944,565.542L168.253,565.61C167.716,560.468 164.174,539.255 165.405,536.028L166.486,535.743Z" style="fill:rgb(254,254,254);fill-rule:nonzero;"/>
</svg>
